<svg id="visual" viewBox="0 0 960 540" width="960" height="540" xmlns="http://www.w3.org/2000/svg" xmlns:xlink="http://www.w3.org/1999/xlink" version="1.1"><rect x="0" y="0" width="960" height="540" fill="#001220"></rect><path d="M0 450L13.3 449.3C26.7 448.7 53.3 447.3 80 443.5C106.7 439.7 133.3 433.3 160 427.5C186.7 421.7 213.3 416.3 240 418.5C266.7 420.7 293.3 430.3 320 433.5C346.7 436.7 373.3 433.3 400 428.7C426.7 424 453.3 418 480 419.2C506.7 420.3 533.3 428.7 560 435.3C586.7 442 613.3 447 640 447.3C666.7 447.7 693.3 443.3 720 440C746.7 436.7 773.3 434.3 800 435.7C826.7 437 853.3 442 880 441C906.7 440 933.3 433 946.7 429.5L960 426L960 541L946.7 541C933.3 541 906.7 541 880 541C853.3 541 826.7 541 800 541C773.3 541 746.7 541 720 541C693.3 541 666.7 541 640 541C613.3 541 586.7 541 560 541C533.3 541 506.7 541 480 541C453.3 541 426.7 541 400 541C373.3 541 346.7 541 320 541C293.3 541 266.7 541 240 541C213.3 541 186.7 541 160 541C133.3 541 106.7 541 80 541C53.3 541 26.7 541 13.3 541L0 541Z" fill="#fcaf3c"></path><path d="M0 432L13.3 436C26.7 440 53.3 448 80 448.2C106.7 448.3 133.3 440.7 160 442.8C186.7 445 213.3 457 240 461.5C266.7 466 293.3 463 320 459.5C346.7 456 373.3 452 400 453.5C426.7 455 453.3 462 480 461.5C506.7 461 533.3 453 560 452.2C586.7 451.3 613.3 457.7 640 457.3C666.7 457 693.3 450 720 443.7C746.7 437.3 773.3 431.7 800 432C826.7 432.3 853.3 438.7 880 444C906.7 449.3 933.3 453.7 946.7 455.8L960 458L960 541L946.7 541C933.3 541 906.7 541 880 541C853.3 541 826.7 541 800 541C773.3 541 746.7 541 720 541C693.3 541 666.7 541 640 541C613.3 541 586.7 541 560 541C533.3 541 506.7 541 480 541C453.3 541 426.7 541 400 541C373.3 541 346.7 541 320 541C293.3 541 266.7 541 240 541C213.3 541 186.7 541 160 541C133.3 541 106.7 541 80 541C53.3 541 26.7 541 13.3 541L0 541Z" fill="#d18537"></path><path d="M0 470L13.3 466.7C26.7 463.3 53.3 456.7 80 455.8C106.7 455 133.3 460 160 461.8C186.7 463.7 213.3 462.3 240 465.2C266.7 468 293.3 475 320 476.5C346.7 478 373.3 474 400 468.2C426.7 462.3 453.3 454.7 480 456.2C506.7 457.7 533.3 468.3 560 469.8C586.7 471.3 613.3 463.7 640 461.5C666.7 459.3 693.3 462.7 720 467.2C746.7 471.7 773.3 477.3 800 474C826.7 470.7 853.3 458.3 880 454.7C906.7 451 933.3 456 946.7 458.5L960 461L960 541L946.7 541C933.3 541 906.7 541 880 541C853.3 541 826.7 541 800 541C773.3 541 746.7 541 720 541C693.3 541 666.7 541 640 541C613.3 541 586.7 541 560 541C533.3 541 506.7 541 480 541C453.3 541 426.7 541 400 541C373.3 541 346.7 541 320 541C293.3 541 266.7 541 240 541C213.3 541 186.7 541 160 541C133.3 541 106.7 541 80 541C53.3 541 26.7 541 13.3 541L0 541Z" fill="#a36030"></path><path d="M0 491L13.3 490.8C26.7 490.7 53.3 490.3 80 486.5C106.7 482.7 133.3 475.3 160 472.3C186.7 469.3 213.3 470.7 240 473.7C266.7 476.7 293.3 481.3 320 480.5C346.7 479.7 373.3 473.3 400 469.7C426.7 466 453.3 465 480 469.8C506.7 474.7 533.3 485.3 560 486.2C586.7 487 613.3 478 640 476.7C666.7 475.3 693.3 481.7 720 482.3C746.7 483 773.3 478 800 479.7C826.7 481.3 853.3 489.7 880 493.5C906.7 497.3 933.3 496.7 946.7 496.3L960 496L960 541L946.7 541C933.3 541 906.7 541 880 541C853.3 541 826.7 541 800 541C773.3 541 746.7 541 720 541C693.3 541 666.7 541 640 541C613.3 541 586.7 541 560 541C533.3 541 506.7 541 480 541C453.3 541 426.7 541 400 541C373.3 541 346.7 541 320 541C293.3 541 266.7 541 240 541C213.3 541 186.7 541 160 541C133.3 541 106.7 541 80 541C53.3 541 26.7 541 13.3 541L0 541Z" fill="#733f25"></path><path d="M0 504L13.3 505C26.7 506 53.3 508 80 506C106.7 504 133.3 498 160 496C186.7 494 213.3 496 240 495C266.7 494 293.3 490 320 492C346.7 494 373.3 502 400 503.5C426.7 505 453.3 500 480 498.5C506.7 497 533.3 499 560 497.5C586.7 496 613.3 491 640 488.7C666.7 486.3 693.3 486.7 720 490.2C746.7 493.7 773.3 500.3 800 502C826.7 503.7 853.3 500.3 880 499.2C906.7 498 933.3 499 946.7 499.5L960 500L960 541L946.7 541C933.3 541 906.7 541 880 541C853.3 541 826.7 541 800 541C773.3 541 746.7 541 720 541C693.3 541 666.7 541 640 541C613.3 541 586.7 541 560 541C533.3 541 506.7 541 480 541C453.3 541 426.7 541 400 541C373.3 541 346.7 541 320 541C293.3 541 266.7 541 240 541C213.3 541 186.7 541 160 541C133.3 541 106.7 541 80 541C53.3 541 26.7 541 13.3 541L0 541Z" fill="#442318"></path><path d="M0 520L13.3 520.2C26.7 520.3 53.3 520.7 80 521C106.7 521.3 133.3 521.7 160 521.7C186.7 521.7 213.3 521.3 240 518.5C266.7 515.7 293.3 510.3 320 507.5C346.7 504.7 373.3 504.3 400 507.5C426.7 510.7 453.3 517.3 480 520.2C506.7 523 533.3 522 560 522.2C586.7 522.3 613.3 523.7 640 523.8C666.7 524 693.3 523 720 520.3C746.7 517.7 773.3 513.3 800 512.5C826.7 511.7 853.3 514.3 880 514.8C906.7 515.3 933.3 513.7 946.7 512.8L960 512L960 541L946.7 541C933.3 541 906.7 541 880 541C853.3 541 826.7 541 800 541C773.3 541 746.7 541 720 541C693.3 541 666.7 541 640 541C613.3 541 586.7 541 560 541C533.3 541 506.7 541 480 541C453.3 541 426.7 541 400 541C373.3 541 346.7 541 320 541C293.3 541 266.7 541 240 541C213.3 541 186.7 541 160 541C133.3 541 106.7 541 80 541C53.3 541 26.7 541 13.3 541L0 541Z" fill="#1a0600"></path></svg>
